<?xml version="1.0" standalone="no"?>
<!DOCTYPE svg PUBLIC "-//W3C//DTD SVG 20010904//EN"
 "http://www.w3.org/TR/2001/REC-SVG-20010904/DTD/svg10.dtd">
<svg version="1.0" xmlns="http://www.w3.org/2000/svg"
 width="1375.000000pt" height="1375.000000pt" viewBox="0 0 1375.000000 1375.000000"
 preserveAspectRatio="xMidYMid meet">
<metadata>
Created by potrace 1.14, written by Peter Selinger 2001-2017
</metadata>
<g transform="translate(0.000000,1375.000000) scale(0.100000,-0.100000)"
fill="#000000" stroke="none">
<path d="M6660 13724 c-131 -33 -225 -66 -338 -121 -53 -26 -99 -47 -102 -47
-3 -1 -30 -16 -61 -34 -31 -17 -62 -32 -68 -32 -6 0 -11 -4 -11 -10 0 -5 -5
-10 -10 -10 -6 0 -36 -16 -66 -35 -30 -19 -56 -35 -59 -35 -7 0 -220 -145
-223 -152 -2 -5 -8 -8 -13 -8 -10 0 -192 -131 -197 -142 -2 -5 -10 -8 -18 -8
-8 0 -14 -3 -14 -7 0 -5 -17 -19 -37 -33 -20 -14 -41 -29 -47 -35 -6 -5 -29
-23 -51 -39 -22 -17 -42 -33 -45 -36 -3 -3 -25 -21 -50 -40 -25 -19 -52 -41
-62 -49 -9 -9 -31 -27 -49 -41 -18 -14 -37 -29 -43 -35 -6 -5 -40 -35 -76 -65
-36 -30 -67 -57 -70 -60 -3 -3 -32 -27 -65 -55 -32 -27 -69 -59 -80 -70 -12
-11 -50 -45 -84 -75 -35 -30 -78 -68 -95 -85 -18 -16 -66 -61 -107 -98 -318
-292 -909 -881 -1259 -1256 -104 -111 -252 -272 -291 -316 -24 -27 -49 -54
-55 -60 -6 -5 -39 -44 -75 -85 -35 -41 -75 -86 -89 -100 -14 -15 -44 -48 -66
-76 -23 -27 -52 -60 -64 -74 -32 -38 -51 -60 -100 -120 -25 -30 -54 -64 -65
-75 -11 -12 -31 -37 -45 -55 -14 -18 -30 -38 -35 -44 -6 -6 -28 -33 -50 -61
-22 -27 -42 -52 -45 -55 -3 -3 -21 -25 -40 -50 -47 -60 -63 -80 -77 -95 -7 -8
-13 -17 -13 -21 0 -4 -6 -12 -14 -18 -8 -6 -85 -105 -171 -221 -86 -115 -163
-218 -170 -227 -7 -9 -18 -25 -24 -36 -6 -11 -17 -26 -23 -34 -7 -7 -31 -40
-53 -73 -22 -33 -48 -69 -57 -79 -10 -11 -18 -26 -18 -33 0 -7 -3 -13 -7 -13
-5 0 -21 -21 -38 -48 -16 -26 -33 -51 -38 -57 -8 -9 -68 -101 -205 -312 -28
-44 -52 -85 -52 -91 0 -6 -4 -12 -8 -14 -12 -4 -228 -370 -265 -448 -6 -14
-14 -27 -17 -30 -4 -3 -12 -21 -20 -40 -8 -19 -16 -37 -19 -40 -7 -6 -76 -140
-77 -149 0 -3 -21 -48 -47 -98 -26 -51 -47 -95 -47 -98 0 -3 -9 -24 -19 -48
-11 -23 -34 -78 -51 -122 -17 -44 -35 -89 -40 -100 -9 -20 -80 -222 -84 -240
-1 -5 -10 -37 -20 -70 -20 -67 -18 -60 -46 -174 -34 -141 -42 -220 -42 -436 0
-153 5 -235 18 -302 2 -13 6 -35 9 -50 20 -100 113 -289 190 -383 92 -114 139
-157 262 -238 140 -93 377 -189 541 -218 14 -3 58 -12 97 -20 38 -8 86 -17
105 -20 19 -3 46 -7 60 -10 14 -3 45 -7 70 -10 25 -2 56 -7 70 -9 25 -5 72
-10 170 -19 30 -3 87 -8 125 -12 39 -4 87 -7 107 -8 20 -1 39 -4 43 -8 3 -3
21 -2 40 2 19 4 37 5 40 1 8 -7 51 -9 440 -16 l300 -6 13 -37 c28 -81 88 -326
97 -402 2 -17 6 -34 9 -38 2 -4 7 -39 11 -77 3 -38 8 -71 10 -74 9 -16 19
-262 18 -486 -1 -424 1 -406 -45 -504 -94 -202 -188 -428 -218 -526 -7 -22
-15 -44 -18 -50 -3 -5 -7 -16 -8 -25 -4 -26 -13 -60 -19 -69 -3 -5 -7 -22 -10
-38 -2 -15 -11 -64 -20 -108 -22 -117 -27 -182 -28 -360 0 -129 7 -280 13
-280 1 0 3 -11 5 -25 5 -30 20 -98 34 -157 22 -86 147 -364 172 -383 3 -3 9
-15 13 -27 4 -13 12 -23 17 -23 5 0 9 -6 9 -14 0 -8 6 -21 13 -28 7 -7 32 -40
54 -73 23 -33 52 -72 65 -87 13 -15 30 -36 38 -46 84 -109 300 -326 440 -442
30 -25 62 -53 72 -63 10 -9 22 -17 27 -17 5 0 11 -3 13 -7 4 -11 98 -86 98
-79 0 3 15 -8 32 -25 18 -16 36 -29 40 -29 7 0 106 -67 118 -80 4 -4 37 -23
95 -54 11 -6 22 -13 25 -16 3 -3 18 -13 35 -22 29 -16 31 -16 115 28 47 24 96
53 108 64 12 11 22 18 22 15 0 -4 21 11 47 32 26 21 56 45 66 53 16 13 50 47
133 134 21 22 114 164 114 174 0 6 3 12 8 14 22 10 130 264 123 291 -1 5 4 7
11 5 6 -2 26 -47 44 -99 17 -52 36 -105 41 -119 30 -71 64 -140 73 -145 6 -4
8 -11 5 -16 -4 -5 -1 -9 4 -9 6 0 11 -5 11 -11 0 -11 89 -143 130 -193 41 -49
202 -209 238 -236 19 -14 39 -30 45 -35 23 -21 143 -103 187 -129 66 -39 189
-96 206 -96 16 0 15 0 124 55 232 117 451 340 553 565 20 43 58 164 64 205 3
17 9 37 13 45 8 13 9 13 13 0 3 -8 17 -58 32 -110 32 -115 100 -254 169 -347
58 -78 212 -233 232 -233 8 0 14 -4 14 -9 0 -12 93 -73 179 -117 101 -51 153
-54 233 -14 55 27 173 99 203 123 6 4 33 25 61 45 76 56 78 59 198 177 103
102 190 212 247 310 35 62 87 170 94 198 2 4 3 8 5 10 1 1 3 9 5 17 4 19 56
164 61 169 4 4 35 -68 40 -96 11 -55 119 -258 174 -327 60 -75 146 -168 185
-201 119 -100 312 -214 338 -199 18 10 285 188 335 223 43 30 57 40 176 134
168 134 378 339 501 492 22 28 43 52 46 55 15 12 169 250 169 260 0 6 5 10 10
10 6 0 10 9 10 19 0 11 5 23 11 26 9 6 59 105 65 130 2 6 16 42 33 82 16 40
37 103 46 140 9 37 18 77 21 88 11 48 19 213 17 365 -2 224 -10 287 -50 435
-13 50 -25 95 -27 100 -6 26 -59 183 -71 210 -7 17 -30 73 -50 125 -21 52 -53
127 -71 165 -46 102 -77 204 -91 305 -15 106 -7 591 12 735 2 17 7 56 10 89 4
32 9 70 12 85 2 14 6 42 8 61 2 19 4 35 5 35 1 0 3 11 6 25 2 14 9 48 15 75 6
28 13 61 14 74 2 13 8 35 13 50 6 14 17 53 27 86 29 105 23 99 106 101 401 10
860 29 929 39 19 3 67 8 105 11 102 8 150 13 150 14 0 1 16 3 35 6 54 5 105
12 105 14 0 1 11 3 25 5 87 13 112 17 165 29 6 1 37 8 70 15 89 19 198 52 214
65 8 6 15 9 15 7 3 -12 187 68 281 122 121 70 268 209 351 333 76 114 113 202
150 354 15 63 18 530 4 596 -5 21 -11 55 -14 74 -3 19 -10 50 -15 68 -5 18
-10 35 -10 37 1 13 -15 78 -38 155 -13 47 -26 92 -28 100 -11 43 -93 268 -120
325 -12 27 -36 82 -40 95 -24 69 -249 516 -311 620 -12 19 -33 56 -47 81 -40
74 -52 94 -57 99 -3 3 -17 26 -30 53 -14 26 -28 47 -32 47 -5 0 -8 4 -8 9 0 5
-33 61 -72 125 -40 64 -77 125 -83 136 -5 11 -13 20 -17 20 -5 0 -8 4 -8 9 0
5 -25 45 -55 90 -30 45 -55 84 -55 87 0 2 -5 10 -10 17 -39 46 -50 61 -50 68
0 4 -6 14 -13 21 -6 7 -25 33 -41 57 -16 25 -33 50 -38 55 -14 17 -141 195
-167 235 -13 19 -29 41 -35 47 -6 6 -22 27 -36 47 -14 20 -28 37 -32 37 -5 0
-8 5 -8 10 0 8 -120 168 -155 206 -5 6 -21 26 -35 44 -31 41 -107 137 -153
193 -184 222 -234 282 -264 314 -11 13 -35 42 -53 63 -18 21 -42 50 -53 63
-12 13 -47 52 -78 88 -31 35 -67 76 -80 90 -13 14 -51 56 -84 94 -33 38 -69
78 -80 90 -11 11 -40 43 -64 70 -58 65 -240 262 -311 335 -30 32 -126 131
-212 221 -302 315 -703 708 -993 971 -27 25 -75 68 -105 96 -30 27 -68 60 -83
73 -16 13 -38 33 -50 44 -12 11 -58 51 -102 89 -175 150 -294 248 -421 347
-38 30 -71 56 -74 59 -3 3 -21 17 -40 30 -19 13 -76 55 -126 92 -51 37 -96 68
-102 68 -6 0 -12 4 -14 9 -3 10 -191 135 -197 132 -2 -2 -7 2 -10 7 -3 5 -20
18 -38 28 -63 38 -149 88 -178 104 -38 21 -193 99 -220 111 -11 4 -50 21 -87
38 -38 16 -68 28 -68 26 0 -2 -19 3 -42 11 -24 9 -50 17 -58 19 -189 50 -350
56 -500 19z"/>
</g>
</svg>
